<svg width="40" height="40" viewBox="0 0 40 40" fill="none" xmlns="http://www.w3.org/2000/svg">
<path d="M0 20C0 8.9543 8.9543 0 20 0C31.0457 0 40 8.95431 40 20C40 31.0457 31.0457 40 20 40C8.9543 40 0 31.0457 0 20Z" fill="url(#paint0_linear_265_744)"/>
<path d="M24.6207 26.0878C24.6229 27.3871 23.557 28.442 22.2467 28.442H17.2476C15.935 28.442 14.8692 27.3871 14.8692 26.0878H24.6207ZM23.8103 12C26.5036 12 28.6905 14.1076 28.6905 16.6974V16.8053C29.1243 16.6798 29.5692 16.9308 29.6969 17.3515C29.7145 17.4197 29.7255 17.4968 29.7255 17.5761V20.6725H29.7321C29.7321 21.1239 29.3666 21.4719 28.9261 21.4851C28.816 21.4851 28.7213 21.4675 28.62 21.4256C28.2236 23.6323 26.2239 25.3104 23.8169 25.3104H15.6906C13.2747 25.3104 11.2619 23.6103 10.8787 21.3948C10.436 21.4344 10.0396 21.0997 10 20.6614V17.4968C10 17.0586 10.3656 16.6974 10.806 16.6974C10.806 14.0987 12.984 12 15.6862 12L23.8103 12ZM23.8235 13.9534H15.6906C14.1226 13.9534 12.8519 15.1845 12.8519 16.6974V20.613C12.8519 22.1259 14.1226 23.357 15.6994 23.357H23.8235C25.3915 23.357 26.671 22.1259 26.671 20.613V16.6974C26.6754 15.1822 25.4047 13.9534 23.8235 13.9534ZM22.5924 15.9134C23.2619 15.9134 23.8147 16.4508 23.8147 17.1224V19.2212C23.8367 19.8885 23.3038 20.4456 22.6343 20.4654C21.9648 20.4831 21.4032 19.9567 21.3812 19.2916V17.1136C21.3812 16.4485 21.9229 15.9134 22.5924 15.9134ZM16.915 15.9156C17.5845 15.9156 18.1373 16.453 18.1373 17.1246V19.2234C18.1373 19.8863 17.5955 20.4324 16.915 20.4324C16.2456 20.4324 15.6928 19.8951 15.6928 19.2234V17.1158C15.6928 16.4529 16.2345 15.9156 16.915 15.9156Z" fill="white"/>
<defs>
<linearGradient id="paint0_linear_265_744" x1="40" y1="21.6667" x2="0" y2="21.6667" gradientUnits="userSpaceOnUse">
<stop stop-color="#9258F7"/>
<stop offset="1" stop-color="#3370FF"/>
</linearGradient>
</defs>
</svg>
