<svg width="16" height="14" viewBox="0 0 16 14" fill="none" xmlns="http://www.w3.org/2000/svg">
<path d="M9.71675 12.8836L14.7167 7.88356C15.2001 7.40023 15.2001 6.60023 14.7167 6.11689L9.71675 1.11689C9.23341 0.633561 8.43341 0.633561 7.95008 1.11689C7.71761 1.35212 7.58724 1.66951 7.58724 2.00023C7.58724 2.33094 7.71761 2.64833 7.95008 2.88356L10.8167 5.75023H2.16675C1.48341 5.75023 0.916748 6.31689 0.916748 7.00023C0.916748 7.68356 1.48341 8.25023 2.16675 8.25023H10.8167L7.95008 11.1169C7.71761 11.3521 7.58724 11.6695 7.58724 12.0002C7.58724 12.3309 7.71761 12.6483 7.95008 12.8836C8.20008 13.1336 8.51675 13.2502 8.83341 13.2502C9.15008 13.2502 9.46675 13.1336 9.71675 12.8836Z" fill="white"/>
</svg>
