<svg width="24" height="24" viewBox="0 0 24 24" fill="none" xmlns="http://www.w3.org/2000/svg">
<path fill-rule="evenodd" clip-rule="evenodd" d="M6.3424 6.34315C6.61019 6.07536 7.04436 6.07536 7.31215 6.34315L11.9993 11.0303L16.6864 6.34315C16.9542 6.07536 17.3883 6.07536 17.6561 6.34315C17.9239 6.61093 17.9239 7.0451 17.6561 7.31289L12.969 12L17.6561 16.6871C17.9239 16.9549 17.9239 17.3891 17.6561 17.6569C17.3883 17.9246 16.9542 17.9246 16.6864 17.6569L11.9993 12.9697L7.31215 17.6569C7.04436 17.9246 6.61019 17.9246 6.3424 17.6569C6.07461 17.3891 6.07461 16.9549 6.3424 16.6871L11.0295 12L6.3424 7.31289C6.07461 7.0451 6.07461 6.61093 6.3424 6.34315Z" fill="#666666"/>
</svg>
