<svg width="40" height="40" viewBox="0 0 40 40" fill="none" xmlns="http://www.w3.org/2000/svg">
<path opacity="0.4" d="M12.7832 4.33301H27.2332C29.8152 4.33301 31.902 5.23375 33.3456 6.74465C34.793 8.2596 35.6665 10.4652 35.6665 13.1997V26.8163C35.6665 29.5417 34.7934 31.7432 33.346 33.2563C31.9023 34.7655 29.8153 35.6663 27.2332 35.6663H12.7832C10.2009 35.6663 8.10921 34.7654 6.66119 33.2554C5.20968 31.7418 4.33319 29.5405 4.33319 26.8163V13.1997C4.33319 10.4664 5.21013 8.26094 6.66161 6.74556C8.10951 5.23392 10.201 4.33301 12.7832 4.33301Z" stroke="#D1DCFE" stroke-width="2"/>
<path d="M25.026 22.9505L22.061 19.9871L25.0243 17.0238C25.5943 16.4555 25.5943 15.5305 25.0243 14.9621C24.4543 14.3888 23.5327 14.3905 22.9627 14.9605L19.9977 17.9238L17.0327 14.9571C16.4627 14.3871 15.5393 14.3905 14.9693 14.9571C14.401 15.5271 14.401 16.4521 14.9693 17.0205L17.936 19.9871L14.976 22.9455C14.406 23.5155 14.406 24.4405 14.976 25.0071C15.261 25.2938 15.6327 25.4355 16.006 25.4355C16.381 25.4355 16.7527 25.2938 17.0377 25.0088L19.9977 22.0488L22.9643 25.0138C23.2493 25.2988 23.621 25.4405 23.9943 25.4405C24.3677 25.4405 24.741 25.2971 25.026 25.0138C25.596 24.4438 25.596 23.5205 25.026 22.9505Z" fill="#1865FF"/>
</svg>
