<svg width="40" height="40" viewBox="0 0 40 40" fill="none" xmlns="http://www.w3.org/2000/svg">
<path d="M10.6667 0.5H29.3333C32.6448 0.5 35.1694 1.43651 36.8664 3.13355C38.5635 4.8306 39.5 7.35518 39.5 10.6667V29.3333C39.5 32.6356 38.5637 35.1605 36.8662 36.86C35.1689 38.5594 32.6442 39.5 29.3333 39.5H10.6667C7.34659 39.5 4.82218 38.5592 3.12732 36.8602C1.43225 35.161 0.5 32.6362 0.5 29.3333V10.6667C0.5 7.35518 1.43651 4.8306 3.13355 3.13355C4.8306 1.43651 7.35518 0.5 10.6667 0.5Z" fill="#181825" stroke="#6D6D82"/>
<path d="M26.6409 21.4167H21.499V26.514C21.499 27.3347 20.8279 28 20 28C19.1721 28 18.501 27.3347 18.501 26.514V21.4167H13.3591C12.5868 21.3374 12 20.6923 12 19.9226C12 19.153 12.5868 18.5079 13.3591 18.4286H18.4848V13.3473C18.5648 12.5818 19.2156 12 19.9919 12C20.7683 12 21.4191 12.5818 21.499 13.3473V18.4286H26.6409C27.4132 18.5079 28 19.153 28 19.9226C28 20.6923 27.4132 21.3374 26.6409 21.4167Z" fill="#6D6D82"/>
</svg>
