<svg width="25" height="6" viewBox="0 0 25 6" fill="none" xmlns="http://www.w3.org/2000/svg">
<path d="M0.333333 3C0.333333 4.47276 1.52724 5.66667 3 5.66667C4.47276 5.66667 5.66667 4.47276 5.66667 3C5.66667 1.52724 4.47276 0.333333 3 0.333333C1.52724 0.333333 0.333333 1.52724 0.333333 3ZM25 3L20 0.113249V5.88675L25 3ZM3 3.5H3.91667V2.5H3V3.5ZM5.75 3.5H7.58333V2.5H5.75V3.5ZM9.41667 3.5H11.25V2.5H9.41667V3.5ZM13.0833 3.5H14.9167V2.5H13.0833V3.5ZM16.75 3.5H18.5833V2.5H16.75V3.5ZM20.4167 3.5H22.25V2.5H20.4167V3.5Z" fill="black"/>
</svg>
